<svg width="60" height="60" viewBox="0 0 60 60" fill="none" xmlns="http://www.w3.org/2000/svg">
<circle cx="30" cy="30" r="30" fill="#4C55A8"/>
<path fill-rule="evenodd" clip-rule="evenodd" d="M20.6781 43.1894L28.5262 46.0458C27.2421 47.1207 25.4468 47.4818 23.7625 46.8687C22.1141 46.2688 20.9709 44.8381 20.6781 43.1894ZM30.9451 41.407L20.6001 42.5117C20.5655 42.0121 20.6232 41.519 20.7733 41.0325L31.4571 39.8888C31.444 39.9247 31.232 40.6186 30.9451 41.407ZM21.5983 38.6543L26.5834 38.115L29.7369 39.2627L21.0374 40.1953C21.1809 39.8011 21.3896 39.2277 21.5983 38.6543ZM30.632 42.267C30.3973 42.9121 30.1755 43.5213 30.0712 43.808L25.2197 44.3148L22.0661 43.167L30.632 42.267ZM22.3906 36.5889L24.8991 37.5019L21.9471 37.8073C22.1819 37.1623 22.3776 36.6247 22.3906 36.5889ZM26.9756 44.9539L29.7223 44.655C29.5028 45.035 29.2562 45.3781 28.9824 45.6843L26.9756 44.9539ZM35.1368 35.4653C32.1682 36.8199 32.0671 37.4324 31.7701 39.0288C31.7527 39.0765 31.7353 39.1243 31.7179 39.1721L22.7232 35.8983C22.7405 35.8505 22.7579 35.8027 22.7753 35.7549C23.574 34.3411 23.8902 33.8069 22.451 30.8481C21.3667 28.5866 21.1622 25.9149 22.0883 23.3705C23.9143 18.3535 29.4506 15.7421 34.4677 17.5682C39.4847 19.3942 42.083 24.9664 40.257 29.9834C39.3309 32.5277 37.4569 34.443 35.1368 35.4653ZM38.3217 29.7254L34.4157 27.8574L34.6785 20.8915L29.4987 29.4361L29.6375 23.0339L27.7176 25.7441L24.4924 24.5702L27.9193 26.7509L28.7994 25.4479L28.3996 33.4596L33.5629 25.0714L33.6922 28.7303L38.3217 29.7254ZM36.3675 16.474C36.1849 16.9757 35.6114 17.2134 35.1455 17.0438C34.6438 16.8612 34.3931 16.3235 34.5757 15.8218L35.3191 13.7792C35.5017 13.2775 36.0394 13.0268 36.5411 13.2094C37.007 13.3789 37.2935 13.9296 37.1109 14.4313L36.3675 16.474ZM30.2849 15.2341C30.3792 15.7554 30.0402 16.2408 29.5189 16.3351C28.9976 16.4295 28.5122 16.0905 28.4179 15.5691L28.0308 13.3991C27.9365 12.8778 28.2754 12.3924 28.7968 12.2981C29.3181 12.2037 29.8035 12.5427 29.8978 13.0641L30.2849 15.2341ZM24.4392 17.2459C24.7779 17.6533 24.7256 18.243 24.3182 18.5817C23.9109 18.9204 23.3212 18.8681 22.9824 18.4608L21.5689 16.7694C21.2302 16.362 21.2825 15.7723 21.6898 15.4336C22.0972 15.0948 22.6869 15.1471 23.0256 15.5545L24.4392 17.2459ZM20.3554 21.8876C20.8571 22.0702 21.1078 22.6078 20.9252 23.1095C20.7426 23.6112 20.2049 23.8619 19.7032 23.6793L17.6247 22.9228C17.123 22.7402 16.8723 22.2026 17.0549 21.7009C17.2375 21.1992 17.7752 20.9484 18.2769 21.131L20.3554 21.8876ZM19.1643 27.9473C19.6857 27.853 20.171 28.192 20.2654 28.7133C20.3597 29.2347 20.0077 29.7559 19.4863 29.8502L17.3293 30.2014C16.808 30.2958 16.2868 29.9437 16.2283 29.4355C16.134 28.9141 16.473 28.4288 16.9943 28.3344L19.1643 27.9473ZM37.6972 37.1277C37.3585 36.7204 37.4108 36.1307 37.8182 35.7919C38.2255 35.4532 38.8152 35.5055 39.154 35.9129L40.5805 37.5684C40.9193 37.9758 40.8539 38.6014 40.4466 38.9401C40.0392 39.2788 39.4495 39.2265 39.1108 38.8191L37.6972 37.1277ZM41.781 32.4861C41.2793 32.3035 41.0417 31.73 41.2112 31.2641C41.3938 30.7624 41.9315 30.5117 42.4332 30.6943L44.5117 31.4508C45.0134 31.6334 45.2641 32.1711 45.0815 32.6728C44.9119 33.1387 44.3612 33.4252 43.8595 33.2426L41.781 32.4861ZM42.9851 26.3905C42.4638 26.4848 41.9784 26.1458 41.8841 25.6245C41.7897 25.1032 42.1287 24.6178 42.6501 24.5234L44.8201 24.1364C45.3414 24.042 45.8268 24.381 45.9211 24.9024C46.0155 25.4237 45.6634 25.9449 45.1551 26.0034L42.9851 26.3905ZM41.0091 20.5578C40.6018 20.8965 40.012 20.8442 39.6733 20.4369C39.3346 20.0295 39.3869 19.4398 39.7943 19.1011L41.4498 17.6745C41.8572 17.3358 42.4827 17.4011 42.8215 17.8085C43.1602 18.2158 43.1079 18.8055 42.7005 19.1443L41.0091 20.5578Z" fill="#E5E5E5"/>
</svg>
