<svg width="60" height="60" viewBox="0 0 60 60" fill="none" xmlns="http://www.w3.org/2000/svg">
<circle cx="30" cy="30" r="30" fill="#4C55A8"/>
<path fill-rule="evenodd" clip-rule="evenodd" d="M37.3398 34.7049C37.9913 36.1995 38.4895 37.4259 38.4512 37.5026L34.8487 40.6069C34.772 40.6452 33.6223 39.9937 32.2426 39.1122L37.3398 34.7049ZM31.0162 39.5721C30.403 40.9135 30.7096 42.2548 30.9779 42.7531C31.8593 44.516 28.7934 43.4046 27.2604 40.3769C26.7621 39.3422 26.8005 38.1541 27.2604 37.1576C28.1802 37.7708 29.6365 38.729 31.0162 39.5721ZM41.4788 34.0917C40.9806 33.7467 39.5626 33.1719 38.0296 33.7467C37.4164 32.3287 36.6883 30.7574 36.2284 29.7226C37.3015 29.2627 38.6045 29.3777 39.6393 30.1059C42.3986 32.0221 43.0885 35.2414 41.4788 34.0917ZM25.3058 16.5006L34.8487 29.3011C35.002 29.4927 35.6535 31.4089 36.6116 33.5934L31.2078 38.2307C29.1766 37.0043 27.3753 36.0462 27.222 35.8929L15.9546 24.5488C15.3797 23.9739 15.2264 23.2074 15.6096 22.9008L23.6962 15.8874C24.0794 15.5808 24.7693 15.8491 25.3058 16.5006ZM25.8807 21.2529C24.6543 19.8349 22.4698 19.6816 21.0518 20.9079C19.6337 22.1343 19.4804 24.3188 20.7068 25.7369C21.9332 27.1549 24.0794 27.3082 25.5358 26.0818C26.9538 24.8554 27.1071 22.6709 25.8807 21.2529ZM14.5365 22.7859L14 13.6262C14 13.2047 14.3066 12.9364 14.7282 13.0131L23.6962 14.8526L14.5365 22.7859ZM39.2177 38.9206C41.926 40.3258 43.2929 41.8844 43.3184 43.5962C43.1651 43.2896 42.948 42.9958 42.6669 42.7147C43.3568 45.7424 45.6179 47.5437 47.3809 49C40.9423 47.2371 40.789 44.746 39.9459 44.2094C40.1758 44.8609 40.789 45.9723 41.7088 46.6239C38.2979 46.049 36.8032 43.2513 36.2284 41.5267C37.8763 42.1782 39.6009 40.6069 39.2177 38.9206Z" fill="white"/>
</svg>
