<svg width="60" height="60" viewBox="0 0 60 60" fill="none" xmlns="http://www.w3.org/2000/svg">
<circle cx="30" cy="30" r="30" fill="#4C55A8"/>
<path fill-rule="evenodd" clip-rule="evenodd" d="M46.7906 24.7962L44.2912 27.3359C44.654 28.8679 44.4524 30.4804 43.6865 31.8914L34.5756 22.7805L27.9642 23.5868L25.7066 26.4087C25.0213 27.2956 23.7312 27.4569 22.8443 26.7716C21.9574 26.0862 21.7962 24.7962 22.5218 23.9093L25.4244 20.1601C25.7469 19.7167 26.271 19.3539 26.916 19.2732L33.8096 18.5073C34.4143 18.467 35.14 18.5073 35.7044 18.7089L38.2038 16.2094C39.8164 14.5969 42.4771 14.5969 44.0896 16.2094L46.7906 18.9507C48.4031 20.5633 48.4031 23.1836 46.7906 24.7962ZM43.4849 33.5845C44.2508 34.3908 44.2508 35.6808 43.4849 36.4871C42.6786 37.2934 41.3886 37.2934 40.5823 36.4871L36.0672 31.972C35.9866 32.187 35.8925 32.3886 35.785 32.5767L41.3483 38.14C42.1545 38.9462 42.1545 40.2363 41.3483 41.0425C40.542 41.8488 39.252 41.8488 38.486 41.0425L33.0034 35.6002L32.5599 36.0437L36.7928 40.2766C37.5991 41.0426 37.5991 42.3729 36.7928 43.1389C35.9866 43.9451 34.6965 43.9451 33.8903 43.1389L29.5364 38.785C29.3483 38.8925 29.1601 39 28.972 39.1075L32.3583 42.4938C33.1646 43.3001 33.1646 44.5901 32.3583 45.3964C31.7133 46.0414 30.7055 46.1221 29.9395 45.7189L30.5845 45.1142C31.5924 44.0661 31.5924 42.4132 30.5845 41.4054C30.0605 40.8813 29.4155 40.6394 28.7301 40.6394C28.4076 40.6394 28.0985 40.6932 27.8029 40.8007C27.9104 40.5319 27.9642 40.2497 27.9642 39.9541C27.9642 39.2687 27.682 38.5834 27.1982 38.0997C26.6741 37.6159 26.0291 37.3337 25.3438 37.3337C25.1825 37.3337 25.0347 37.3471 24.9003 37.374C25.626 36.3662 25.5454 34.9149 24.6181 33.9877C24.1344 33.5039 23.4894 33.2217 22.7637 33.2217C22.1993 33.2217 21.6753 33.4233 21.2318 33.7458C21.2587 33.5845 21.2721 33.4367 21.2721 33.3023C21.2721 32.5767 21.0302 31.9317 20.5062 31.4479C20.0224 30.9238 19.3774 30.682 18.6517 30.682C17.9664 30.682 17.3214 30.9238 16.7973 31.4479L16.3135 31.9317C15.5476 30.5207 15.346 28.8679 15.7088 27.3359L13.2094 24.7962C11.5969 23.1836 11.5969 20.5633 13.2094 18.9507L15.9104 16.2094C17.523 14.5969 20.1836 14.5969 21.7962 16.2094L22.5622 17.0157C23.0862 16.5319 23.7312 16.2497 24.4972 16.2497H30.4636C31.673 16.2497 32.7212 17.0157 33.1243 18.0638L27.1176 18.6685L26.8354 18.7089C26.0694 18.8298 25.4244 19.1926 24.981 19.8376L22.0381 23.5465C21.6349 24.0706 21.4334 24.7559 21.514 25.4815C21.5946 26.1669 21.9574 26.7716 22.4815 27.215C22.9653 27.5778 23.5297 27.7794 24.0941 27.7794C24.9407 27.7794 25.6663 27.4166 26.1904 26.7716L28.2464 24.1109L33.4065 23.5062L34.0112 24.1512L34.8578 24.9575L43.4849 33.5845ZM26.7548 41.4054L24.7391 43.4211C23.9328 44.2273 22.6428 44.2273 21.8365 43.4211C21.0302 42.6551 21.0302 41.365 21.8365 40.5588L23.8925 38.5028C24.6988 37.6965 25.9888 37.6965 26.7548 38.5028C27.561 39.3091 27.561 40.5991 26.7548 41.4054ZM30.1411 44.6708L29.1736 45.6786C28.3673 46.4446 27.0773 46.4446 26.3113 45.6786C25.505 44.8723 25.505 43.5823 26.3113 42.776L27.2788 41.8085C28.0851 41.0022 29.3751 41.0022 30.1411 41.8085C30.9474 42.5745 30.9474 43.9048 30.1411 44.6708ZM24.215 37.2934L20.1836 41.3247C19.3774 42.131 18.0873 42.131 17.2811 41.3247C16.4748 40.5185 16.4748 39.2284 17.2811 38.4222L21.3124 34.3908C22.1187 33.5845 23.4087 33.5845 24.215 34.3908C25.0213 35.1971 25.0213 36.4871 24.215 37.2934ZM18.047 36.7693C17.2811 37.5756 15.991 37.5756 15.1848 36.7693C14.3785 35.963 14.3785 34.673 15.1848 33.8667L17.2004 31.8511C18.0067 31.0448 19.2968 31.0448 20.103 31.8511C20.9093 32.617 20.9093 33.9474 20.103 34.7133L18.047 36.7693Z" fill="white"/>
</svg>
